HIERARCHY
ROOT Hips
{
	OFFSET 0.00000 0.00000 0.00000
	CHANNELS 6 Xposition Yposition Zposition Zrotation Yrotation Xrotation 
	JOINT LHipJoint
	{
		OFFSET 0 0 0
		CHANNELS 3 Zrotation Yrotation Xrotation
		JOINT LeftUpLeg
		{
			OFFSET 1.54859 -1.61379 0.86856
			CHANNELS 3 Zrotation Yrotation Xrotation
			JOINT LeftLeg
			{
				OFFSET 2.25087 -6.18423 0.00000
				CHANNELS 3 Zrotation Yrotation Xrotation
				JOINT LeftFoot
				{
					OFFSET 2.40328 -6.60297 0.00000
					CHANNELS 3 Zrotation Yrotation Xrotation
					JOINT LeftToeBase
					{
						OFFSET 0.17435 -0.47901 2.02453
						CHANNELS 3 Zrotation Yrotation Xrotation
						End Site
						{
							OFFSET 0.00000 -0.00000 1.04844
						}
					}
				}
			}
		}
	}
	JOINT RHipJoint
	{
		OFFSET 0 0 0
		CHANNELS 3 Zrotation Yrotation Xrotation
		JOINT RightUpLeg
		{
			OFFSET -1.54669 -1.61379 0.86856
			CHANNELS 3 Zrotation Yrotation Xrotation
			JOINT RightLeg
			{
				OFFSET -2.28132 -6.26789 0.00000
				CHANNELS 3 Zrotation Yrotation Xrotation
				JOINT RightFoot
				{
					OFFSET -2.51636 -6.91365 0.00000
					CHANNELS 3 Zrotation Yrotation Xrotation
					JOINT RightToeBase
					{
						OFFSET -0.15124 -0.41552 2.21090
						CHANNELS 3 Zrotation Yrotation Xrotation
						End Site
						{
							OFFSET -0.00000 -0.00000 1.13399
						}
					}
				}
			}
		}
	}
	JOINT LowerBack
	{
		OFFSET 0 0 0
		CHANNELS 3 Zrotation Yrotation Xrotation
		JOINT Spine
		{
			OFFSET -0.04287 2.26161 -0.25690
			CHANNELS 3 Zrotation Yrotation Xrotation
			JOINT Spine1
			{
				OFFSET 0.02248 2.28395 -0.10140
				CHANNELS 3 Zrotation Yrotation Xrotation
				JOINT Neck
				{
					OFFSET 0 0 0
					CHANNELS 3 Zrotation Yrotation Xrotation
					JOINT Neck1
					{
						OFFSET -0.11644 1.38496 0.11345
						CHANNELS 3 Zrotation Yrotation Xrotation
						JOINT Head
						{
							OFFSET 0.29383 1.36600 0.06642
							CHANNELS 3 Zrotation Yrotation Xrotation
							End Site
							{
								OFFSET 0.11075 1.41395 -0.00294
							}
						}
					}
				}
				JOINT LeftShoulder
				{
					OFFSET 0 0 0
					CHANNELS 3 Zrotation Yrotation Xrotation
					JOINT LeftArm
					{
						OFFSET 3.51628 0.59542 -0.30346
						CHANNELS 3 Zrotation Yrotation Xrotation
						JOINT LeftForeArm
						{
							OFFSET 4.76405 -0.00000 0.00000
							CHANNELS 3 Zrotation Yrotation Xrotation
							JOINT LeftHand
							{
								OFFSET 3.13759 -0.00000 -0.00000
								CHANNELS 3 Zrotation Yrotation Xrotation
								JOINT LeftFingerBase
								{
									OFFSET 0 0 0
									CHANNELS 3 Zrotation Yrotation Xrotation
									JOINT LeftHandIndex1
									{
										OFFSET 0.73226 -0.00000 -0.00000
										CHANNELS 3 Zrotation Yrotation Xrotation
										End Site
										{
											OFFSET 0.59037 -0.00000 -0.00000
										}
									}
								}
								JOINT LThumb
								{
									OFFSET 0 0 0
									CHANNELS 3 Zrotation Yrotation Xrotation
									End Site
									{
										OFFSET 0.59938 -0.00000 0.59938
									}
								}
							}
						}
					}
				}
				JOINT RightShoulder
				{
					OFFSET 0 0 0
					CHANNELS 3 Zrotation Yrotation Xrotation
					JOINT RightArm
					{
						OFFSET -3.30990 0.84213 -0.36430
						CHANNELS 3 Zrotation Yrotation Xrotation
						JOINT RightForeArm
						{
							OFFSET -5.10161 -0.00000 -0.00000
							CHANNELS 3 Zrotation Yrotation Xrotation
							JOINT RightHand
							{
								OFFSET -3.23267 -0.00000 -0.00000
								CHANNELS 3 Zrotation Yrotation Xrotation
								JOINT RightFingerBase
								{
									OFFSET 0 0 0
									CHANNELS 3 Zrotation Yrotation Xrotation
									JOINT RightHandIndex1
									{
										OFFSET -0.70200 -0.00000 -0.00000
										CHANNELS 3 Zrotation Yrotation Xrotation
										End Site
										{
											OFFSET -0.56597 -0.00000 -0.00000
										}
									}
								}
								JOINT RThumb
								{
									OFFSET 0 0 0
									CHANNELS 3 Zrotation Yrotation Xrotation
									End Site
									{
										OFFSET -0.57461 -0.00000 0.57461
									}
								}
							}
						}
					}
				}
			}
		}
	}
}
MOTION
Frames: 13
Frame Time: 0.04
0.00 0.00 0.00 -55.4456 72.4665 -44.7034 0.0000 0.0000 0.0000 -17.6660 -3.3055 -74.0304 24.1031 19.5915 102.0757 0.7391 -3.2800 -15.4621 0.0066 -0.5245 -1.4413 0.0000 0.0000 0.0000 7.8799 -11.1598 -11.5482 -6.8678 -15.2195 48.3725 -2.1403 2.7113 -26.9754 -8.1407 16.2218 -53.0680 13.2503 3.6600 29.1076 6.5866 9.6196 13.4787 -2.6906 5.6737 0.3823 -6.6202 0.9566 -12.6570 4.6473 3.3692 -15.1866 2.7289 2.3674 -3.0180 0.0000 0.0000 0.0000 -75.7691 30.8045 67.6127 33.4025 -43.6372 -13.6991 -0.0000 0.0000 -32.1105 36.4534 35.7862 23.3627 -7.1250 0.0000 -0.0000 4.9242 71.7935 3.1415 0.0000 0.0000 0.0000 67.8464 51.6020 -3.4524 -14.0205 22.7640 -2.8360 0.0000 0.0000 12.9387 -30.3305 34.7387 -18.4380 7.1250 -0.0000 -0.0000 1.4146 8.7880 1.6145
0.00 0.00 0.00 -85.2520 72.4779 -72.6171 0.0000 0.0000 0.0000 -21.1673 -5.2443 -79.7370 18.5242 19.9477 85.6816 0.4477 -4.6247 -11.9064 0.0586 1.5617 4.2959 0.0000 0.0000 0.0000 14.7128 -10.0871 7.8728 -2.5643 -9.9538 28.8273 -0.2901 5.8198 -9.8066 -7.7296 15.9167 -51.5826 11.9640 2.8470 26.5780 6.6816 8.0093 13.4718 -1.3093 4.9026 1.0974 -6.8896 1.0607 -9.7461 7.7000 3.9389 -17.9497 3.4933 2.5704 -4.0521 -0.0000 -0.0000 0.0000 -84.1219 35.1364 57.1901 36.8806 -46.1092 -16.1539 -0.0000 0.0000 -36.1819 37.1849 34.5254 23.2661 -7.1250 0.0000 -0.0000 6.8233 70.6838 4.1885 -0.0000 -0.0000 0.0000 74.4989 39.2269 4.7008 -28.6557 39.7129 -10.5400 0.0000 -0.0000 -18.1160 -32.5127 37.8077 -21.3418 7.1250 -0.0000 -0.0000 1.0053 12.6316 1.2009
0.00 0.00 0.00 -112.5050 67.6053 -96.6788 0.0000 0.0000 0.0000 -28.5816 -0.9037 -74.7097 13.5659 18.9771 70.8743 0.2183 -4.7855 -8.4562 0.5101 4.5782 12.7094 0.0000 0.0000 0.0000 24.7518 -10.0355 12.4998 -3.2575 -11.1006 32.6200 0.0205 2.6124 1.5949 -5.8817 14.3127 -44.5052 10.8721 -0.1260 21.5602 4.9887 3.1281 12.9143 -1.2891 2.5101 2.4502 -6.4087 2.9837 -8.2477 9.4322 6.7595 -18.0427 3.8727 3.8474 -4.5618 0.0000 0.0000 0.0000 -98.2988 28.8656 34.6766 38.0861 -46.8942 -17.0284 -0.0000 0.0000 -38.5990 33.2596 31.0666 18.6984 -7.1250 0.0000 -0.0000 2.4175 65.7358 1.2108 0.0000 0.0000 0.0000 86.3586 20.1979 16.3727 -61.7338 56.7545 -35.7875 0.0000 -0.0000 -26.5115 -46.8028 42.1823 -35.5700 7.1250 -0.0000 -0.0000 -4.5396 22.8185 -5.9585
0.00 0.00 0.00 -117.5920 66.4409 -100.3820 0.0000 0.0000 0.0000 -29.8731 1.6079 -68.4993 12.4896 18.5900 67.5324 0.3418 -8.4046 -11.1704 1.5837 7.9390 22.5289 0.0000 0.0000 0.0000 24.9517 -12.1317 5.0375 -6.5241 -14.9177 47.0507 0.0075 1.8809 -0.4686 -5.4096 13.8307 -42.5635 10.4470 -1.0490 19.6347 3.8558 1.4696 12.2602 -1.9638 1.6345 2.5351 -6.3842 3.9613 -7.4286 9.6492 8.1288 -18.1996 3.8686 4.4907 -4.8686 0.0000 -0.0000 0.0000 -101.0613 22.9138 27.3240 38.1983 -46.9655 -17.1104 -0.0000 0.0000 -36.0636 34.6255 30.2847 19.1993 -7.1250 0.0000 -0.0000 4.6087 65.2874 2.2621 0.0000 -0.0000 0.0000 91.3477 9.9782 15.0124 -86.2291 59.9462 -56.7349 0.0000 -0.0000 -32.0198 -46.9315 41.6862 -35.4308 7.1250 -0.0000 -0.0000 -4.7950 22.3886 -6.2762
0.00 0.00 0.00 -123.8050 67.1952 -105.8960 0.0000 0.0000 0.0000 -31.2193 4.1946 -56.9315 11.9160 18.3549 65.7223 1.2115 -11.8837 -20.1487 1.6022 7.9831 22.6628 0.0000 0.0000 0.0000 21.7166 -10.0406 -9.2523 -15.0172 -19.3940 75.2886 0.0067 -2.8541 -3.6565 -4.3071 12.5583 -37.7366 7.4198 -2.3690 18.8833 1.8053 -0.9751 11.3210 -2.0829 0.1919 1.5663 -6.6716 5.6558 -4.8345 9.7109 10.6340 -20.1752 3.7093 5.6531 -6.1652 0.0000 0.0000 0.0000 -100.7132 12.6058 21.4913 39.9882 -48.0629 -18.4304 -0.0000 0.0000 -28.7916 36.0987 32.7919 21.5498 -7.1250 0.0000 -0.0000 5.8187 68.4642 3.2808 0.0000 0.0000 0.0000 95.2385 -4.9166 12.5066 -116.1283 57.2564 -82.4193 0.0000 -0.0000 -45.1474 -43.1134 36.6566 -29.2027 7.1250 -0.0000 -0.0000 -4.7303 15.4378 -5.8356
0.00 0.00 0.00 -131.9050 69.2822 -115.4460 0.0000 0.0000 0.0000 -32.5961 5.8839 -45.9269 11.4312 18.1397 64.1742 1.6384 -12.3250 -23.2405 0.5536 4.7664 13.2434 0.0000 0.0000 0.0000 16.9633 -3.4599 -20.7954 -21.5086 -19.9453 94.4147 -0.0055 -4.2280 -6.2480 -3.2278 11.0549 -32.4654 1.9665 -3.7710 20.6097 0.3855 -3.5233 11.7931 -0.0208 -1.2823 1.1820 -6.9562 7.1751 -4.0586 9.2573 12.8458 -21.5620 3.4088 6.7598 -6.9511 -0.0000 0.0000 0.0000 -96.2800 4.0426 22.9482 45.3272 -50.9278 -22.4925 -0.0000 0.0000 -27.3387 36.1062 33.2003 21.7710 -7.1250 0.0000 -0.0000 5.6601 68.9088 3.2479 -0.0000 0.0000 0.0000 94.8946 -10.8250 13.8765 -126.9107 54.1679 -91.3395 0.0000 -0.0000 -56.6485 -39.4784 30.2428 -22.5321 7.1250 -0.0000 -0.0000 -4.6393 6.9767 -5.1845
0.00 0.00 0.00 -147.4010 65.9608 -130.4240 0.0000 0.0000 0.0000 -29.1160 9.9301 -19.0188 6.5534 14.9440 47.1643 0.7967 -15.5409 -18.0366 0.0765 1.7839 4.9089 0.0000 0.0000 0.0000 8.1634 12.8552 -52.2655 -23.5877 -19.6886 100.5422 -0.0884 -6.7310 -11.5177 -3.6892 11.7349 -34.8006 -0.7886 -7.1977 19.2817 1.8026 -8.6091 10.2421 3.8727 -4.0755 0.7815 -6.5899 9.4795 -2.9134 6.6631 14.5484 -16.5094 2.4473 7.5223 -5.4824 0.0000 0.0000 0.0000 -85.7376 -9.8678 29.9862 64.4490 -57.3834 -38.0666 -0.0000 0.0000 -20.5134 34.0825 23.6751 15.1999 -7.1250 0.0000 -0.0000 5.5304 57.7904 1.7350 0.0000 0.0000 0.0000 91.4031 -10.6988 17.6500 -135.3524 50.5947 -98.0339 0.0000 -0.0000 -61.3232 -31.8360 17.9899 -10.8555 7.1250 -0.0000 -0.0000 -2.4527 -9.0771 -2.0369
0.00 0.00 0.00 -146.6600 68.4997 -130.6100 0.0000 0.0000 0.0000 -32.2546 8.0189 13.1985 3.6858 11.7302 34.7840 -0.0418 3.7427 -2.3516 0.1778 -2.7163 -7.4900 0.0000 0.0000 0.0000 5.1240 16.7598 -58.4683 -6.9657 -15.3029 48.7444 -0.2473 6.6777 -9.3584 -5.9309 14.3611 -44.7038 -2.8386 -6.9936 13.1310 6.1582 -8.9701 7.6203 9.0316 -4.6127 2.2879 -2.8471 10.8489 -8.1060 0.7219 14.9198 -4.8031 0.9253 7.6080 -0.4516 0.0000 -0.0000 0.0000 -89.0143 2.5818 45.7317 57.4630 -55.5951 -32.2389 -0.0000 0.0000 -13.7716 37.1021 19.5913 14.2308 -7.1250 0.0000 -0.0000 9.3369 53.7875 2.0309 0.0000 -0.0000 0.0000 91.1790 23.3863 28.6004 -132.9861 51.7178 -96.1907 0.0000 -0.0000 -27.6225 -13.6377 9.5295 -2.3002 7.1250 -0.0000 -0.0000 9.5098 -20.2421 5.7104
0.00 0.00 0.00 -146.5750 68.4084 -132.7340 0.0000 0.0000 0.0000 -31.8745 10.4511 8.3271 8.1911 16.2580 53.2481 -0.0465 4.3697 -3.8476 0.0647 -1.6408 -4.5140 0.0000 0.0000 0.0000 7.7700 14.4994 -53.4835 -6.7008 -15.0747 47.7336 -0.3363 6.3700 -10.5813 -5.5397 13.9669 -43.1050 -1.9752 -6.3024 14.0786 6.4062 -7.8658 7.9047 8.8382 -3.9843 1.8004 -1.9261 10.2723 -9.1709 -0.2427 14.1238 -5.6200 0.5327 7.2213 -0.3846 0.0000 -0.0000 0.0000 -91.1641 8.1982 49.5812 46.7662 -51.6050 -23.6150 -0.0000 0.0000 -15.9183 35.7352 20.8566 14.3682 -7.1250 0.0000 -0.0000 7.7525 54.9564 1.9041 0.0000 -0.0000 0.0000 95.2587 32.0785 36.1176 -131.7852 52.2496 -95.2445 0.0000 -0.0000 -14.5664 -8.8287 8.4689 -1.3104 7.1250 -0.0000 -0.0000 12.9898 -21.4893 7.5197
0.00 0.00 0.00 -145.6040 65.6344 -135.0550 0.0000 0.0000 0.0000 -27.3496 12.2239 1.9179 14.7666 19.3303 74.5326 -0.0598 5.8901 -6.3924 0.0034 -0.3758 -1.0326 0.0000 0.0000 0.0000 11.9115 10.7917 -45.8783 -7.2759 -15.5599 49.9102 -0.7585 3.8555 -15.6027 -5.7852 14.2169 -44.1136 1.5613 -6.0545 16.6292 6.7986 -6.7677 8.3302 7.4272 -3.1985 0.3396 -1.4489 9.1606 -8.9008 -0.7582 12.6878 -8.2119 0.1822 6.5573 -1.1500 -0.0000 0.0000 0.0000 -92.5715 14.0143 51.7811 37.7910 -46.7053 -16.8133 -0.0000 0.0000 -18.9932 35.4580 24.6017 16.5145 -7.1250 0.0000 -0.0000 7.0307 59.1834 2.4438 -0.0000 0.0000 0.0000 100.0143 38.8571 45.3957 -127.5693 53.9300 -91.8727 0.0000 -0.0000 -1.9444 -6.2285 8.3408 -0.9070 7.1250 -0.0000 -0.0000 14.8455 -21.6810 8.5971
0.00 0.00 0.00 -143.8960 61.3875 -136.1330 0.0000 0.0000 0.0000 -20.3545 11.8865 -6.8393 21.5257 19.9441 94.4648 0.0727 3.4382 -7.5116 0.0001 -0.0462 -0.1270 0.0000 0.0000 0.0000 16.8779 5.7840 -37.1925 -7.2353 -15.5269 49.7589 -1.2747 1.1498 -21.0015 -6.2507 14.6670 -45.9797 6.3490 -5.9805 18.7928 7.3874 -5.4550 8.7124 5.3845 -2.2826 -0.9054 -1.2981 7.4565 -9.0132 -0.8300 10.5436 -10.7193 0.0415 5.5557 -1.9050 -0.0000 -0.0000 0.0000 -92.6741 19.1203 51.8055 33.0961 -43.4037 -13.4880 -0.0000 0.0000 -21.8510 36.7348 30.0475 20.4905 -7.1250 0.0000 -0.0000 7.6589 65.6492 3.8297 -0.0000 -0.0000 0.0000 103.6084 43.4177 53.4973 -116.0257 57.2792 -82.3330 0.0000 0.0000 9.9382 -7.3914 9.9459 -1.2836 7.1250 -0.0000 -0.0000 13.8961 -20.0842 8.5307
0.00 0.00 0.00 -143.2460 59.2333 -136.2590 0.0000 0.0000 0.0000 -16.3564 10.9044 -14.8034 25.0660 19.3732 104.9623 0.1403 -0.5442 -6.9008 0.0105 -0.6620 -1.8192 0.0000 0.0000 0.0000 19.2460 3.0710 -31.7360 -6.7354 -15.1049 47.8662 -1.5167 -0.5595 -23.5007 -6.5678 14.9568 -47.2200 8.3869 -5.2628 19.1594 7.7027 -4.0042 8.7781 4.3352 -1.4611 -1.1966 -1.4586 5.8754 -9.3386 -0.3523 8.5703 -11.8436 0.1818 4.6123 -2.2388 -0.0000 0.0000 0.0000 -91.7831 22.0770 51.0157 33.0683 -43.3825 -13.4690 -0.0000 0.0000 -23.4338 38.0534 32.5039 22.8134 -7.1250 0.0000 -0.0000 8.9944 68.7627 5.1410 -0.0000 0.0000 0.0000 104.1221 45.4722 56.3333 -101.2734 59.5143 -69.7471 0.0000 0.0000 16.5854 -9.8167 11.9773 -2.0565 7.1250 -0.0000 -0.0000 12.0931 -17.9832 7.9480
0.00 0.00 0.00 -143.3060 58.0315 -136.2710 0.0000 0.0000 0.0000 -13.7663 9.6367 -24.1641 27.4795 18.6021 112.3707 0.0972 -4.6755 -6.0091 0.0240 -0.9992 -2.7467 0.0000 0.0000 0.0000 20.4940 1.3790 -26.6009 -6.0423 -14.4692 45.1512 -1.5931 -2.2468 -24.7470 -6.9151 15.2599 -48.5523 8.9740 -3.8220 18.7513 7.8373 -2.0526 8.6092 3.7275 -0.4705 -1.2157 -1.9499 3.9630 -9.2983 0.7178 6.1871 -12.5415 0.5724 3.4506 -2.5122 0.0000 -0.0000 0.0000 -90.1756 24.6859 50.1268 35.5869 -45.2267 -15.2285 -0.0000 0.0000 -24.4308 38.5128 32.9519 23.4061 -7.1250 0.0000 -0.0000 9.6142 69.3993 5.6351 0.0000 -0.0000 0.0000 102.8457 47.1044 56.8764 -80.2943 59.6410 -51.6048 0.0000 0.0000 21.7787 -12.2975 14.3149 -3.0852 7.1250 -0.0000 -0.0000 10.3294 -15.5007 7.3147
